<svg xmlns="http://www.w3.org/2000/svg" width="512" height="512"><path d="M0 0h512v512H0V0Zm267.2 0h.2c3.6 1.2 8 1 11.8 1.5 5.5.7 11.1 1.8 16.5 3.1q4.4 1 8.7 2.3l8.6 2.7q4.2 1.5 8.3 3.2 4.2 1.7 8.2 3.6l8 4 7.8 4.5q3.8 2.4 7.5 5 3.7 2.4 7.3 5.2 4.7 3.5 9.1 7.4c1.8 1.6 3.6 3.4 5.5 4.9l.4-.1c5.7-1 11.5-3.4 17-5.2 2.6-.8 5.3-1.9 8-2l1.3.1 1.1.3 1.1.4 1 .6a6.8 6.8 0 0 1 3 5c.6 3.7.2 8 .2 11.7v22.6c0 3-.5 6.7.2 9.6.7 2.9 2.6 5.8 3.9 8.4q2.5 5 4.5 10.3A78.4 78.4 0 0 1 454 95.3c2.6-.2 5.4-.5 8 0 2 .3 3.8 1.1 5 2.8 1.7 2.6 1.4 5.1.7 8-1.3 5.9-3 11.7-4.5 17.4l-8 31c-6.2 23.4-12 47-18.4 70.3-.9 3-2 6-3.5 9-1.3 2.6-4.4 6-4.8 8.9-.5 4.3-.1 9.1-.1 13.4v134c0 4.9.2 9.9 0 14.8 7.3.2 14.7-.2 22 .4l3 .3 3 .5 3 .6 3 .7 2.8 1 3 1 2.7 1 2.8 1.3 2.7 1.4 2.7 1.5 2.5 1.6 2.5 1.8 2.5 1.8 2.3 2 2.2 2 2.2 2.2a66.3 66.3 0 0 1 16.3 29.3c.9 3.4 1 7.4 2.3 10.6V0H267.2ZM0 0v465c1.4-2.9 1.4-6.9 2.3-10l1.3-4.4 1.6-4.2 1.9-4 2.2-4q1-2 2.4-3.8 1.2-1.9 2.6-3.6l2.9-3.5 3-3.2 2.2-2 2.1-1.9 2.2-1.7L29 417l2.4-1.6L34 414l2.5-1.3 2.5-1.3 2.6-1.1q1.3-.6 2.7-1 1.3-.6 2.7-1l2.7-.8 2.8-.7 2.8-.6 2.8-.4 2.8-.4c7.5-.7 15.2-.3 22.7-.3-.3-4.3 0-8.7 0-13V254.8c0-4 .5-8.7-.2-12.6-.4-2.4-3-5.3-4.2-7.5a43.8 43.8 0 0 1-3.4-8c-2.5-8.2-4.5-16.8-6.7-25.2l-12.6-48.4-8.7-33.4c-1.3-5.1-3-10.4-4-15.6-.3-2-.1-3.8 1-5.6.9-1.7 2.6-2.8 4.5-3.3 2.8-.6 6.1-.2 9 0a81.3 81.3 0 0 1 37.5 13.9c1.2-4 3.2-8 5-11.8 1.2-2.1 2.7-4.6 3.2-7 .7-3 .4-6.7.4-9.9v-22c0-4-.5-8.6.2-12.5.4-2 1.3-3.6 3-4.7a7 7 0 0 1 4-1.2c2.9.1 5.8 1.2 8.6 2.1 5.5 1.8 11.3 4 17 5.2h.3l4.3-4q2.1-1.9 4.4-3.7 2.2-2 4.5-3.7l4.6-3.5 4.8-3.3q2.4-1.7 4.9-3.2l5-3q2.4-1.5 5-2.8l5.2-2.7 5.2-2.5 5.4-2.2 5.4-2.2 5.5-1.9L207 7l5.6-1.5q2.8-.8 5.7-1.4c4.9-1 10-2 15-2.7 3.4-.4 7.7-.3 11-1.3l.1-.1H0Zm512 506.4c-1.5 2.6-3 4-5.6 5.6h5.6v-5.6Zm-512 .3v5.3h5.5c-2.5-1.5-4-2.8-5.5-5.3Z"/><path fill="#FEDD2C" d="M327 32c11.4 5 21.4 13.1 31.3 20.7l-6 2-3.9-1.3c-.3-3-11.5-13.2-14.3-15.5-2.4-2-5.2-3.5-7.2-6Z"/><path fill="#FEA229" d="m370 64.8 22.8-7V85h-22.6c.4-2.3.2-17.5-.2-20.2Z"/><path fill="#FEDD2C" d="M377.2 100h18.6c3.2 6.5 6 13 8.6 19.7a88 88 0 0 0-15.1 23.5c-.3-.3-.5-.6-.6-1-.6-2-.7-4.3-1-6.3q-1.4-6.8-3-13.4-3-11.5-7.5-22.5Z"/><path fill="#5BA02E" d="M444.8 420.2h2.6l2.5.2 2.5.3 2.4.4 2.5.6 2.4.6 2.4.8 2.3.9q1.2.4 2.3 1l2.3 1 2.2 1.3 2.1 1.3 2 1.5 2 1.5 2 1.6 1.8 1.7a53.6 53.6 0 0 1 15.9 40.7V497h-43.1c-6.9 0-13.9.3-20.8 0 4.2-.7 9-.2 13.1-.2h28.3v-15.7c0-4.8.1-9.6-.3-14.4l-.3-2.3-.4-2.4-.5-2.4-.5-2.3-.7-2.3-.7-2.3-.9-2.2-1-2.2-1-2.2-1-2.1-1.2-2-1.3-2.1-1.3-2-1.4-2-1.5-1.8-1.6-1.8c-2.4-2.6-5-5-7.9-7.2-1.8-1.5-4.7-2.9-6-4.7l-.2-.2Z"/><path fill="#88C341" d="M428.5 420c5.4 0 11-.2 16.3.2l.2.2c1.3 1.8 4.2 3.2 6 4.7 2.8 2.1 5.5 4.6 7.9 7.2l1.6 1.8 1.5 1.9 1.4 1.9 1.3 2 1.3 2 1.2 2.1 1 2.1 1 2.2q.6 1 1 2.2l.9 2.2.7 2.3.7 2.3.5 2.3.5 2.4.4 2.4.3 2.3c.4 4.8.3 9.7.3 14.4v15.7h-28.3c-4.2 0-9-.5-13 .2h-4.7v-77Z"/><path fill="#FEF49E" d="M153.7 52.7c4.2-3 8-6.3 12.2-9.3q4.9-3.4 10-6.4 5-3 10.3-5.7 5.3-2.6 10.8-4.8 5.4-2.2 11-4l3.7-1.1q1.8-.6 3.7-1 1.8-.6 3.7-1l3.7-.9 3.8-.7 3.7-.7 3.8-.6 3.8-.5 3.8-.3 3.8-.3 3.8-.3h11.5l3.8.1 3.8.3 3.8.4 3.8.4 3.8.5 3.8.7 3.7.7 3.8.8 3.7.9 3.7 1 3.6 1 3.7 1.2 3.6 1.3 3.6 1.3 3.5 1.4 3.5 1.5 3.5 1.6 3.4 1.7c2 2.5 4.8 4 7.2 6 2.8 2.3 14 12.5 14.3 15.5l-29.6-9.2c-3.8-1.2-10.5-3.9-14.3-4-3.5-.3-42 12.4-48.6 14.5-6.3-2.4-13-4.2-19.5-6.2-4.8-1.5-25-8.4-28.6-8.4-3.6 0-14.2 4-18.3 5.3l-29.8 9.3-6-2ZM279.8 100h97.4q4.5 11 7.4 22.5 1.7 6.6 3 13.4c.4 2 .5 4.3 1 6.3l.7 1c-2.7 7.1-4.3 14-5.4 21.6-7.6-.6-15-1.6-22.3-3.3q-2.6-.6-5.1-1.4l-5-1.5-5-1.7-5-2-4.8-2.2q-2.4-1-4.7-2.3l-4.6-2.5-4.6-2.8-4.4-2.9-4.2-3-4.2-3.3-4-3.5q-2-1.7-3.9-3.6l-3.7-3.7-3.5-4-3.4-4a163 163 0 0 1-11.7-17Z"/><path fill="#88C341" d="M15 497v-18.7c0-4.7 0-9.5.7-14.1l.4-2 .5-2 .5-2 .6-2 .7-2 .7-2 .9-1.8.9-1.9 1-1.8 1-1.8 1.1-1.7 1.2-1.7 1.3-1.7 1.3-1.5 1.4-1.6 1.4-1.5c16.3-16 32-15.2 52.9-15.2v36.5c0 6-.5 12.5.1 18.5.1 1.4.4 2.6 1.2 3.7 1.4 2.2 3.7 2.9 6 3.4q.3 7.4.2 14.9H15ZM158.5 447.9a156.7 156.7 0 0 0 195-.1V497h-195v-49.1Z"/><path fill="#FEDD2C" d="M353.5 351.4V405h-195v-53.4c2.5 1.3 5.6 4.6 7.8 6.5a119 119 0 0 0 8.6 6.4l4 2.7 4 2.5q2 1.3 4.1 2.4l4.2 2.3 4.3 2 4.4 2q2.1 1 4.4 1.8 2.2 1 4.4 1.7l4.6 1.5 4.6 1.4 4.6 1.2 4.6 1 4.7 1 4.7.6 4.8.6 4.7.4 6 .3h6l6-.1 6-.5 6-.7 6-1 5.8-1.2 5.8-1.5 5.8-1.7 5.7-2 5.6-2.1 5.4-2.5q2.8-1.2 5.4-2.6l5.3-2.9 5.1-3.1 5-3.3a182 182 0 0 0 16.6-13.3Z"/><path fill="#FEF49E" d="M116.2 100h116c-2.1 3.3-4 6.6-6.2 9.7q-2.9 4.2-6 8.1-3.3 4-6.8 7.6-3.5 3.7-7.3 7-3.8 3.4-7.8 6.5c-20 16-44.9 23.8-70 25.9a79.2 79.2 0 0 0-20.5-45.2c2.7-6.6 5.4-13.1 8.6-19.6Z"/><path fill="#FEDD2C" d="m207.9 55.3 31.3 9.8c4 1.2 13 4.6 16.5 4.8 3.5.1 42.1-12.5 48.4-14.6 6.9 2.6 14.2 4.5 21.2 6.7 4.5 1.4 23.4 8 27 7.9 4-.1 13.2-3.7 17.7-5 .4 2.6.6 17.8.2 20h-251V57.8l27 8.4c3.8 1.2 9.3 3.5 13.1 3.8 3.4.3 41.7-12.3 48.6-14.6Z"/><path fill="#5BA02E" d="M158.5 420h195v7.9c-2.5 2-4.8 4.3-7.3 6.4-4.6 3.8-9.4 7.2-14.3 10.5l-3.9 2.4-3.9 2.2-4 2.1-4 2-4 1.8q-2.2 1-4.3 1.7-2 .9-4.2 1.6l-4.2 1.5-4.3 1.3-4.4 1.2-4.4 1-4.4.9-4.4.7q-2.2.4-4.5.6l-4.4.5-4.5.3-6 .2h-5.8q-3 0-6-.3l-5.8-.5-5.8-.7-5.8-1-5.8-1.3-5.7-1.5-5.6-1.7-5.6-2-5.5-2.2q-2.7-1.1-5.3-2.4-2.7-1.2-5.3-2.6l-5.1-2.9-5-3-5-3.3c-5.8-4.2-11.2-8.8-16.5-13.6V420Z"/><path fill="#FEB9A1" d="M383.5 179.8c0 5.3-.7 21.4.6 25.5.3 1 1 1.8 1.7 2.6a7.2 7.2 0 0 0 5.4 2.1h.7l.8-.2.8-.2.7-.4.7-.3.6-.5.6-.5.5-.6c1.1-1.2 1.7-2.8 2-4.4.3-3 0-6.3 0-9.3-.1-11.1-1-23 1.3-34l1-4.3 1.4-4.1 1.7-4q.8-2 1.9-4 1-2 2.2-3.8 1.1-1.9 2.4-3.6l2.7-3.5q1.4-1.7 3-3.2a64.4 64.4 0 0 1 34.8-18.3c-6.2 25.4-13.1 50.7-19.7 76l-5.8 22c-1.6 6.4-3 13-5.8 19a31.6 31.6 0 0 1-21.2 16.3c0-4.4 1.2-13.5-2.1-16.8l-.6-.5-.6-.5-.7-.4-.7-.3-.8-.3-.8-.1-.8-.1H390l-.7.2-.7.2-.7.2-.6.4-.6.4-.6.4-.5.5a7.2 7.2 0 0 0-1.8 4.1c-.7 5.2-.2 12-.2 17.4q-.1 7.7-1.1 15.3-1 7.7-3 15.2l-1.1 4-1.3 4.2-1.4 4-1.6 4-1.7 4-1.8 3.8-2 3.8-2 3.8-2.2 3.7-2.3 3.6-2.5 3.5-2.5 3.4-2.7 3.4-2.8 3.2-2.9 3.2-3 3A119.3 119.3 0 0 1 314 361c.8-1.9 2.6-2.9 4-4.2 4.6-4.8 9.1-9.6 13.1-15a153 153 0 0 0 29.2-79.2c1-11.7.7-23.5.7-35.2v-50.5a136 136 0 0 0 22.5 3Z"/><path fill="#FEF49E" d="M413.2 254.5c.5.5.3 20 .3 22.4v220h-44.7c-.5-.5-.3-2-.3-2.8V335c17.3-23.7 26.6-46 29.5-75.4 5.3-1 10.3-2.6 15.2-5ZM98.5 254.3c4.9 2.5 10 4.4 15.5 5.2 3 29.3 12 51.7 29.5 75.4v162H91l-.1-14.8c2.5-.4 4.7-1 6.2-3.3 1-1.4 1.4-3.2 1.4-5 .2-2.8 0-5.6 0-8.4V254.3Z"/><path fill="#FEDCCF" d="M249 100h14a144 144 0 0 0 98 76.8v50.5c0 11.7.3 23.5-.7 35.2a153 153 0 0 1-29.2 79.3c-4 5.3-8.5 10.1-13.1 14.9-1.4 1.3-3.2 2.3-4 4.2l-4.1 2-4.2 2-4.3 1.6q-2.1.9-4.3 1.6l-4.4 1.4-4.4 1.3-4.5 1-4.5 1-4.6.8-4.5.6-4.6.4-4.6.3h-9.3l-4.6-.2-4.6-.4-5-.7-5-.8-5-1-4.8-1.3-4.9-1.4-4.8-1.6-4.7-1.8-4.6-2-4.6-2.2-4.5-2.3-4.3-2.5-4.3-2.7-4.2-2.9-4-3-4-3.2-3.8-3.3-3.6-3.5-3.5-3.7q-1.8-1.8-3.4-3.7l-3.2-4q-1.6-1.9-3.1-4l-3-4-2.7-4.3-2.5-4.4-2.4-4.4-2.2-4.6q-1.1-2.2-2-4.6l-2-4.7-1.6-4.8-1.5-4.8-1.3-4.9-1-5c-1.8-8.8-2.5-17.8-2.5-26.8 0-3.8.4-9.7 0-13.2a8.2 8.2 0 0 0-1.8-4.5l-.6-.6-.6-.5-.7-.5-.7-.3-.7-.3-.8-.3-.8-.1h-.8a7 7 0 0 0-5.2 2c-3.5 3.6-2.3 12.3-2.3 17q-2.4-.6-4.7-1.5-2.2-1-4.3-2.2l-2-1.3-2-1.4q-1-.7-1.8-1.6l-1.7-1.7-1.5-1.8-1.4-2-1.3-2-1-2.1c-2.4-5-3.5-10.6-4.9-15.8l-5.5-21.3-20.5-78.6c13 2.5 24.4 7.9 34 17.2l3 3.4q1.6 1.7 3 3.5l2.6 3.8 2.4 4 2 4.1q1 2.1 1.8 4.3l1.4 4.4 1 4.4c2.3 10.7 1.4 22.3 1.4 33.1 0 3.5-.3 7.2.2 10.6.2 1.5.7 2.8 1.7 3.9 1.5 1.6 4 2.5 6 2.5 1.9 0 3.4-.7 4.7-2a9 9 0 0 0 2.2-4.4c.6-3 .3-6.3.2-9.3v-14.5c17.3-1.1 34-4.9 49.8-11.9q2.4-1 4.7-2.2 2.4-1 4.7-2.3l4.5-2.5 4.5-2.7 4.4-2.9 4.2-3 4.2-3.2 4-3.3 4-3.4 3.7-3.6 3.6-3.8 3.5-3.8 3.4-4q1.7-2 3.2-4.1 1.6-2.1 3-4.3 1.6-2 3-4.3c2.9-4.5 6.1-9.5 8-14.5Z"/><path d="M300.8 205c5.8-.2 11.6 0 17.3 0 4.5 0 9.5-.4 14 .3a7 7 0 0 1 3.8 1.5 7.9 7.9 0 0 1 2.6 5.4 7 7 0 0 1-2.3 5.6c-3 3-8.6 2.3-12.6 2.2h-15c-.2 1.7-.4 3-1.3 4.5a6.2 6.2 0 0 1-4.1 3.1 8 8 0 0 1-6.3-.8 7.8 7.8 0 0 1-3.2-5.2c-.6-3.4-.7-11 1.4-13.7 1.4-2 3.5-2.5 5.7-2.8ZM180.8 205c6-.2 12 0 18 0 4 0 8.4-.3 12.4.1 1.4.2 2.8.5 4 1.2a7 7 0 0 1 3.1 4.7c.7 3 .6 11.3-1.2 13.9-1.4 2-3.4 2.7-5.7 3.1-2 0-3.8-.5-5.2-1.8-2-1.6-2.6-3.8-2.8-6.2h-14.2c-2.8 0-5.8.3-8.6 0-1.5-.3-3-.8-4.3-1.7l-.5-.5-.5-.5-.5-.6-.4-.6-.3-.7-.2-.6-.2-.7-.2-.7c-.2-2 .3-4 1.5-5.5 1.6-1.9 3.5-2.5 5.8-2.8ZM226.8 285c11.6-.4 23.4 0 35 0H277c3.2 0 6.5-.2 9.7.1a9 9 0 0 1 4.3 1.1l.6.5.6.5.5.5.4.6.4.6.3.7.3.7q0 .4.2.7v.8q.1.4 0 .8v1.6l-.3.7-.3.7-.4.7-.4.7c-1.5 2-3.4 2.6-5.7 3-12.1.4-24.5 0-36.6 0h-15.5c-2.6 0-5.3.2-7.8 0a9.8 9.8 0 0 1-4.7-1.5l-.6-.4-.6-.5-.5-.6-.4-.6-.4-.6-.3-.7-.2-.7-.2-.7v-2.2l.1-.7.2-.7.3-.6.3-.7.4-.6c1.6-2 3.6-2.8 6-3.1Z"/></svg>